<?xml version="1.0" encoding="UTF-8"?>
<svg id="Layer_1" data-name="Layer 1" xmlns="http://www.w3.org/2000/svg" xmlns:xlink="http://www.w3.org/1999/xlink" viewBox="0 0 363.65 390.64">
  <defs>
    <style>
      .cls-1 {
        fill: url(#linear-gradient-2);
      }

      .cls-2 {
        stroke: #162848;
      }

      .cls-2, .cls-3, .cls-4, .cls-5, .cls-6, .cls-7 {
        fill: none;
        stroke-linecap: round;
      }

      .cls-2, .cls-3, .cls-6 {
        stroke-linejoin: round;
        stroke-width: 14px;
      }

      .cls-3 {
        stroke: #0b1424;
      }

      .cls-4, .cls-5 {
        stroke: #1e1a22;
      }

      .cls-4, .cls-5, .cls-7 {
        stroke-miterlimit: 10;
      }

      .cls-4, .cls-7 {
        stroke-width: 5px;
      }

      .cls-5 {
        stroke-width: 3px;
      }

      .cls-8 {
        fill: #1e1a22;
      }

      .cls-6 {
        stroke: #000;
      }

      .cls-9 {
        fill: url(#linear-gradient-3);
      }

      .cls-10 {
        fill: url(#linear-gradient);
      }

      .cls-7 {
        stroke: #fff;
      }
    </style>
    <linearGradient id="linear-gradient" x1="171.7" y1="170.32" x2="258.67" y2="385" gradientUnits="userSpaceOnUse">
      <stop offset=".07" stop-color="#3661eb"/>
      <stop offset=".32" stop-color="#2b48a9"/>
      <stop offset=".81" stop-color="#151521"/>
    </linearGradient>
    <linearGradient id="linear-gradient-2" x1="38.48" y1="138.46" x2="30.52" y2="87.38" gradientTransform="translate(-28.83 -8.77) rotate(-11.31) scale(1.3 1.11)" gradientUnits="userSpaceOnUse">
      <stop offset="0" stop-color="#3661eb"/>
      <stop offset=".11" stop-color="#458bdb"/>
      <stop offset=".23" stop-color="#59c3c8"/>
      <stop offset=".24" stop-color="#5bc3c8"/>
      <stop offset=".38" stop-color="#a1dddf"/>
      <stop offset=".49" stop-color="#d3eff0"/>
      <stop offset=".58" stop-color="#f3fafb"/>
      <stop offset=".63" stop-color="#fff"/>
      <stop offset=".69" stop-color="#fcfefe"/>
      <stop offset=".73" stop-color="#f3fafb"/>
      <stop offset=".77" stop-color="#e4f5f6"/>
      <stop offset=".8" stop-color="#cfedef"/>
      <stop offset=".83" stop-color="#b4e3e6"/>
      <stop offset=".86" stop-color="#92d7db"/>
      <stop offset=".88" stop-color="#6bc9ce"/>
      <stop offset=".89" stop-color="#59c3c8"/>
      <stop offset="1" stop-color="#3661eb"/>
    </linearGradient>
    <linearGradient id="linear-gradient-3" x1="144.58" y1="263.22" x2="297.34" y2="47.26" gradientUnits="userSpaceOnUse">
      <stop offset=".02" stop-color="#3661eb"/>
      <stop offset=".27" stop-color="#458bdb"/>
      <stop offset=".56" stop-color="#59c3c8"/>
      <stop offset=".61" stop-color="#60c5ca"/>
      <stop offset=".68" stop-color="#73ccd0"/>
      <stop offset=".77" stop-color="#94d8db"/>
      <stop offset=".86" stop-color="#c0e8ea"/>
      <stop offset=".97" stop-color="#f9fdfd"/>
      <stop offset=".98" stop-color="#fff"/>
    </linearGradient>
  </defs>
  <g>
    <path class="cls-10" d="m189.98,388.14c-80.94,0-154.58-58.87-179.07-143.16C-18.93,142.27,33.46,36.44,127.7,9.05c14.97-4.35,30.43-6.55,45.96-6.55,80.94,0,154.58,58.87,179.07,143.16,29.84,102.71-22.55,208.54-116.79,235.93-14.97,4.35-30.43,6.55-45.96,6.55Z"/>
    <path class="cls-8" d="m173.68,5c79.83,0,152.47,58.13,176.66,141.36,7.23,24.87,9.76,50.29,7.54,75.56-2.15,24.38-8.61,47.59-19.22,68.98-10.59,21.35-24.76,39.82-42.14,54.88-17.96,15.57-38.57,26.81-61.27,33.4-14.74,4.28-29.97,6.45-45.27,6.45-19.23,0-38.38-3.39-56.95-10.07-18.3-6.59-35.55-16.21-51.27-28.59-15.9-12.52-29.81-27.53-41.33-44.61-11.93-17.68-21.06-37.23-27.12-58.09-7.23-24.87-9.76-50.29-7.54-75.56,2.15-24.38,8.61-47.59,19.22-68.98,10.59-21.35,24.76-39.82,42.14-54.88,17.96-15.57,38.57-26.81,61.27-33.4,14.74-4.28,29.97-6.45,45.28-6.45h0M173.67,0c-15.5,0-31.17,2.15-46.66,6.65C31.29,34.47-21.76,141.48,8.51,245.68c25.38,87.33,101.22,144.96,181.47,144.96,15.5,0,31.17-2.15,46.66-6.65,95.72-27.81,148.77-134.83,118.49-239.02C329.76,57.63,253.91,0,173.67,0h0Z"/>
  </g>
  <path class="cls-1" d="m46.01,127.06l-34,9c-.81.25-.33-1.22,0-2,1.76-4.15,3.83-11.54,7-20,3-8,.97-2.62,4-10,2.92-7.11,7.95-17.4,17-30,8-2,16-6,24-8l-18,61Z"/>
  <path class="cls-9" d="m345.31,135.3c15.71,50.27,13.74,81.54,9,110-4,24-13.13,40.75-19,51-14.28,24.9-35.16,50.71-54,60-13.65,6.73-25.48,16.7-50,17-23.31.28-53.7-11-59-13-45-17-102.9-74.47-119-158C39.04,128.23,59.31,17.3,157.31,5.3c70.1-8.58,162.31,47.8,188,130Z"/>
  <path class="cls-4" d="m108.31,317.3c38,43,96.5,70.5,152.5,53.5,1,0,18-9,19-9"/>
  <path class="cls-4" d="m114.81,13.8c-41.02,23.68-64.5,75.5-68.5,121.5-3,49,4.5,93.5,30.5,137.5"/>
  <path class="cls-7" d="m230.38,20.2c-7.37-3.14-15.11-5.35-23.02-6.62"/>
  <path class="cls-7" d="m319.9,98.87c-10.67-17.25-23.67-33.03-38.28-47.09"/>
  <path class="cls-7" d="m328.67,296.69c32.64-57.39,24.64-130.39-3.15-188.84"/>
  <line class="cls-5" x1="22.81" y1="98.8" x2="48.81" y2="88.8"/>
  <line class="cls-5" x1="15.81" y1="115.8" x2="41.81" y2="107.8"/>
  <line class="cls-5" x1="8.81" y1="138.8" x2="42.81" y2="128.8"/>
  <line class="cls-5" x1="126.99" y1="368.78" x2="157.29" y2="358.02"/>
  <line class="cls-5" x1="152.24" y1="373.71" x2="173.54" y2="364.94"/>
  <path class="cls-4" d="m66.75,191.9c5.88,36.94,20.88,72.69,43.89,102.24,21.89,28.11,51.86,51.33,86.69,60.53,21.35,5.64,44.16,5.53,65.2-1.4"/>
  <path class="cls-4" d="m66.44,127.16c-1.67,10.59-2.44,21.32-2.39,32.04"/>
  <path class="cls-7" d="m182.41,9.69c-10.09-.92-21.76,2.21-31.27,5.34-6.84,2.25-13.45,5.18-19.72,8.74-12.47,7.07-23.45,16.58-32.54,27.64-5.26,6.39-9.89,13.29-13.91,20.53"/>
  <line class="cls-5" x1="4.51" y1="158.56" x2="40.51" y2="148.56"/>
  <line class="cls-5" x1="2.51" y1="174.56" x2="41.51" y2="164.56"/>
  <line class="cls-5" x1="2.51" y1="188.56" x2="40.51" y2="178.56"/>
  <line class="cls-5" x1="2.51" y1="204.56" x2="41.51" y2="195.56"/>
  <line class="cls-5" x1="142.33" y1="347.22" x2="115.51" y2="357.56"/>
  <line class="cls-5" x1="129.99" y1="337.29" x2="96.99" y2="347.29"/>
  <line class="cls-5" x1="114.51" y1="327.56" x2="88.51" y2="336.56"/>
  <line class="cls-5" x1="108.51" y1="317.56" x2="74.51" y2="328.56"/>
  <line class="cls-5" x1="5.51" y1="223.56" x2="45.51" y2="215.56"/>
  <line class="cls-5" x1="11.51" y1="241.56" x2="49.51" y2="231.56"/>
  <line class="cls-5" x1="18.51" y1="266.56" x2="60.51" y2="254.56"/>
  <line class="cls-5" x1="28.51" y1="289.56" x2="71.51" y2="275.56"/>
  <line class="cls-5" x1="35.51" y1="75.56" x2="55.51" y2="68.56"/>
  <line class="cls-5" x1="49.51" y1="57.56" x2="69.51" y2="50.56"/>
  <line class="cls-5" x1="190.51" y1="370.56" x2="170.51" y2="379.56"/>
  <g>
    <g>
      <line class="cls-6" x1="165.26" y1="42.58" x2="251.12" y2="319.8"/>
      <path class="cls-6" d="m302.1,195.37c15.09,29.05-.12,63.11-29.87,72.33l-117.15,36.28"/>
      <path class="cls-6" d="m247.45,62.7l-102.25,31.67c-23.8,7.37-40.87,30.24-37.85,54.98,3.98,32.49,35.77,52,65.52,42.78l66.93-20.73c23.8-7.37,50.81,1.85,62.3,23.96"/>
    </g>
    <g>
      <line class="cls-3" x1="167.2" y1="41.03" x2="253.06" y2="318.25"/>
      <path class="cls-3" d="m304.03,193.81c15.09,29.05-.12,63.11-29.87,72.33l-117.15,36.28"/>
      <path class="cls-3" d="m249.38,61.15l-102.25,31.67c-23.8,7.37-40.87,30.24-37.85,54.98,3.98,32.49,35.77,52,65.52,42.78l66.93-20.73c23.8-7.37,50.81,1.85,62.3,23.96"/>
    </g>
    <g>
      <line class="cls-2" x1="169.14" y1="39.47" x2="255" y2="316.69"/>
      <path class="cls-2" d="m305.97,192.26c15.09,29.05-.12,63.11-29.87,72.33l-117.15,36.28"/>
      <path class="cls-2" d="m251.32,59.59l-102.25,31.67c-23.8,7.37-40.87,30.24-37.85,54.98,3.98,32.49,35.77,52,65.52,42.78l66.93-20.73c23.8-7.37,50.81,1.85,62.3,23.96"/>
    </g>
  </g>
</svg>